<mxfile host="Electron" modified="2024-12-28T06:19:24.075Z" agent="Mozilla/5.0 (Windows NT 10.0; Win64; x64) AppleWebKit/537.36 (KHTML, like Gecko) draw.io/22.0.2 Chrome/114.0.5735.289 Electron/25.8.4 Safari/537.36" etag="QVbSxzaT-hg2gS9jV0mZ" version="22.0.2" type="device">
  <diagram name="Page-1" id="Wd7IpUAxdXYiqGe9JL04">
    <mxGraphModel dx="1295" dy="1948" grid="1" gridSize="10" guides="1" tooltips="1" connect="1" arrows="1" fold="1" page="1" pageScale="1" pageWidth="827" pageHeight="1169" math="0" shadow="0">
      <root>
        <mxCell id="0" />
        <mxCell id="1" parent="0" />
        <mxCell id="46q81IR-mYQ_SQyIT16s-81" value="&lt;i style=&quot;font-weight: normal;&quot;&gt;&amp;lt;&amp;lt;interface&amp;gt;&amp;gt;&lt;/i&gt;&lt;br&gt;&lt;i&gt;ICanvas&lt;/i&gt;" style="swimlane;fontStyle=1;align=center;verticalAlign=top;childLayout=stackLayout;horizontal=1;startSize=40;horizontalStack=0;resizeParent=1;resizeParentMax=0;resizeLast=0;collapsible=1;marginBottom=0;whiteSpace=wrap;html=1;" parent="1" vertex="1">
          <mxGeometry x="270" y="-650" width="330" height="222" as="geometry" />
        </mxCell>
        <mxCell id="46q81IR-mYQ_SQyIT16s-82" value="+&amp;nbsp;drawLine(start: Point, end: Point)" style="text;strokeColor=none;fillColor=none;align=left;verticalAlign=top;spacingLeft=4;spacingRight=4;overflow=hidden;rotatable=0;points=[[0,0.5],[1,0.5]];portConstraint=eastwest;whiteSpace=wrap;html=1;fontStyle=2" parent="46q81IR-mYQ_SQyIT16s-81" vertex="1">
          <mxGeometry y="40" width="330" height="26" as="geometry" />
        </mxCell>
        <mxCell id="46q81IR-mYQ_SQyIT16s-83" value="+&amp;nbsp;drawEllipse(center: Point, width: number, height: number)" style="text;strokeColor=none;fillColor=none;align=left;verticalAlign=top;spacingLeft=4;spacingRight=4;overflow=hidden;rotatable=0;points=[[0,0.5],[1,0.5]];portConstraint=eastwest;whiteSpace=wrap;html=1;fontStyle=2" parent="46q81IR-mYQ_SQyIT16s-81" vertex="1">
          <mxGeometry y="66" width="330" height="26" as="geometry" />
        </mxCell>
        <mxCell id="46q81IR-mYQ_SQyIT16s-84" value="+&amp;nbsp;fillEllipse(center: Point, width: number, height: number)" style="text;strokeColor=none;fillColor=none;align=left;verticalAlign=top;spacingLeft=4;spacingRight=4;overflow=hidden;rotatable=0;points=[[0,0.5],[1,0.5]];portConstraint=eastwest;whiteSpace=wrap;html=1;fontStyle=2" parent="46q81IR-mYQ_SQyIT16s-81" vertex="1">
          <mxGeometry y="92" width="330" height="26" as="geometry" />
        </mxCell>
        <mxCell id="46q81IR-mYQ_SQyIT16s-85" value="+&amp;nbsp;fillPolygon(points: Point[])" style="text;strokeColor=none;fillColor=none;align=left;verticalAlign=top;spacingLeft=4;spacingRight=4;overflow=hidden;rotatable=0;points=[[0,0.5],[1,0.5]];portConstraint=eastwest;whiteSpace=wrap;html=1;fontStyle=2" parent="46q81IR-mYQ_SQyIT16s-81" vertex="1">
          <mxGeometry y="118" width="330" height="26" as="geometry" />
        </mxCell>
        <mxCell id="46q81IR-mYQ_SQyIT16s-86" value="+&amp;nbsp;setFillColor(color: RGBA)" style="text;strokeColor=none;fillColor=none;align=left;verticalAlign=top;spacingLeft=4;spacingRight=4;overflow=hidden;rotatable=0;points=[[0,0.5],[1,0.5]];portConstraint=eastwest;whiteSpace=wrap;html=1;fontStyle=2" parent="46q81IR-mYQ_SQyIT16s-81" vertex="1">
          <mxGeometry y="144" width="330" height="26" as="geometry" />
        </mxCell>
        <mxCell id="NJMLS7cSDRtt0C9bfpIb-1" value="+&amp;nbsp;setLineColor(color: RGBA)" style="text;strokeColor=none;fillColor=none;align=left;verticalAlign=top;spacingLeft=4;spacingRight=4;overflow=hidden;rotatable=0;points=[[0,0.5],[1,0.5]];portConstraint=eastwest;whiteSpace=wrap;html=1;fontStyle=2" parent="46q81IR-mYQ_SQyIT16s-81" vertex="1">
          <mxGeometry y="170" width="330" height="26" as="geometry" />
        </mxCell>
        <mxCell id="NJMLS7cSDRtt0C9bfpIb-2" value="+&amp;nbsp;setLineThickness(thickness: number)" style="text;strokeColor=none;fillColor=none;align=left;verticalAlign=top;spacingLeft=4;spacingRight=4;overflow=hidden;rotatable=0;points=[[0,0.5],[1,0.5]];portConstraint=eastwest;whiteSpace=wrap;html=1;fontStyle=2" parent="46q81IR-mYQ_SQyIT16s-81" vertex="1">
          <mxGeometry y="196" width="330" height="26" as="geometry" />
        </mxCell>
        <mxCell id="46q81IR-mYQ_SQyIT16s-118" value="Shape" style="swimlane;fontStyle=1;align=center;verticalAlign=top;childLayout=stackLayout;horizontal=1;startSize=26;horizontalStack=0;resizeParent=1;resizeParentMax=0;resizeLast=0;collapsible=1;marginBottom=0;whiteSpace=wrap;html=1;" parent="1" vertex="1">
          <mxGeometry x="1160" y="-110" width="220" height="138" as="geometry" />
        </mxCell>
        <mxCell id="46q81IR-mYQ_SQyIT16s-122" value="+ Реализует все методы, draw пустой" style="text;strokeColor=none;fillColor=none;align=left;verticalAlign=top;spacingLeft=4;spacingRight=4;overflow=hidden;rotatable=0;points=[[0,0.5],[1,0.5]];portConstraint=eastwest;whiteSpace=wrap;html=1;" parent="46q81IR-mYQ_SQyIT16s-118" vertex="1">
          <mxGeometry y="26" width="220" height="26" as="geometry" />
        </mxCell>
        <mxCell id="46q81IR-mYQ_SQyIT16s-123" value="" style="line;strokeWidth=1;fillColor=none;align=left;verticalAlign=middle;spacingTop=-1;spacingLeft=3;spacingRight=3;rotatable=0;labelPosition=right;points=[];portConstraint=eastwest;strokeColor=inherit;" parent="46q81IR-mYQ_SQyIT16s-118" vertex="1">
          <mxGeometry y="52" width="220" height="8" as="geometry" />
        </mxCell>
        <mxCell id="46q81IR-mYQ_SQyIT16s-126" value="- lineStyle: LineStyle" style="text;strokeColor=none;fillColor=none;align=left;verticalAlign=top;spacingLeft=4;spacingRight=4;overflow=hidden;rotatable=0;points=[[0,0.5],[1,0.5]];portConstraint=eastwest;whiteSpace=wrap;html=1;" parent="46q81IR-mYQ_SQyIT16s-118" vertex="1">
          <mxGeometry y="60" width="220" height="26" as="geometry" />
        </mxCell>
        <mxCell id="46q81IR-mYQ_SQyIT16s-127" value="- colorStyle: ColorStyle" style="text;strokeColor=none;fillColor=none;align=left;verticalAlign=top;spacingLeft=4;spacingRight=4;overflow=hidden;rotatable=0;points=[[0,0.5],[1,0.5]];portConstraint=eastwest;whiteSpace=wrap;html=1;" parent="46q81IR-mYQ_SQyIT16s-118" vertex="1">
          <mxGeometry y="86" width="220" height="26" as="geometry" />
        </mxCell>
        <mxCell id="46q81IR-mYQ_SQyIT16s-128" value="- frame: Frame" style="text;strokeColor=none;fillColor=none;align=left;verticalAlign=top;spacingLeft=4;spacingRight=4;overflow=hidden;rotatable=0;points=[[0,0.5],[1,0.5]];portConstraint=eastwest;whiteSpace=wrap;html=1;" parent="46q81IR-mYQ_SQyIT16s-118" vertex="1">
          <mxGeometry y="112" width="220" height="26" as="geometry" />
        </mxCell>
        <mxCell id="NJMLS7cSDRtt0C9bfpIb-3" value="&lt;i style=&quot;font-weight: normal;&quot;&gt;&amp;lt;&amp;lt;interface&amp;gt;&amp;gt;&lt;/i&gt;&lt;br&gt;&lt;i&gt;IDrawable&lt;/i&gt;" style="swimlane;fontStyle=1;align=center;verticalAlign=top;childLayout=stackLayout;horizontal=1;startSize=40;horizontalStack=0;resizeParent=1;resizeParentMax=0;resizeLast=0;collapsible=1;marginBottom=0;whiteSpace=wrap;html=1;" parent="1" vertex="1">
          <mxGeometry x="680" y="-650" width="330" height="66" as="geometry" />
        </mxCell>
        <mxCell id="NJMLS7cSDRtt0C9bfpIb-4" value="+&amp;nbsp;draw(canvas: ICanvas)" style="text;strokeColor=none;fillColor=none;align=left;verticalAlign=top;spacingLeft=4;spacingRight=4;overflow=hidden;rotatable=0;points=[[0,0.5],[1,0.5]];portConstraint=eastwest;whiteSpace=wrap;html=1;fontStyle=2" parent="NJMLS7cSDRtt0C9bfpIb-3" vertex="1">
          <mxGeometry y="40" width="330" height="26" as="geometry" />
        </mxCell>
        <mxCell id="NJMLS7cSDRtt0C9bfpIb-11" value="Use" style="endArrow=open;endSize=12;dashed=1;html=1;rounded=0;" parent="1" source="NJMLS7cSDRtt0C9bfpIb-3" target="46q81IR-mYQ_SQyIT16s-81" edge="1">
          <mxGeometry width="160" relative="1" as="geometry">
            <mxPoint x="540" y="-480" as="sourcePoint" />
            <mxPoint x="700" y="-480" as="targetPoint" />
          </mxGeometry>
        </mxCell>
        <mxCell id="NJMLS7cSDRtt0C9bfpIb-12" value="&lt;i style=&quot;font-weight: normal;&quot;&gt;&amp;lt;&amp;lt;interface&amp;gt;&amp;gt;&lt;/i&gt;&lt;br&gt;&lt;i&gt;IShape&lt;/i&gt;" style="swimlane;fontStyle=1;align=center;verticalAlign=top;childLayout=stackLayout;horizontal=1;startSize=40;horizontalStack=0;resizeParent=1;resizeParentMax=0;resizeLast=0;collapsible=1;marginBottom=0;whiteSpace=wrap;html=1;" parent="1" vertex="1">
          <mxGeometry x="810" y="-410" width="330" height="222" as="geometry" />
        </mxCell>
        <mxCell id="NJMLS7cSDRtt0C9bfpIb-13" value="+ getFrame(): Frame" style="text;strokeColor=none;fillColor=none;align=left;verticalAlign=top;spacingLeft=4;spacingRight=4;overflow=hidden;rotatable=0;points=[[0,0.5],[1,0.5]];portConstraint=eastwest;whiteSpace=wrap;html=1;fontStyle=2" parent="NJMLS7cSDRtt0C9bfpIb-12" vertex="1">
          <mxGeometry y="40" width="330" height="26" as="geometry" />
        </mxCell>
        <mxCell id="NJMLS7cSDRtt0C9bfpIb-14" value="+ setFrame(frame: Frame)" style="text;strokeColor=none;fillColor=none;align=left;verticalAlign=top;spacingLeft=4;spacingRight=4;overflow=hidden;rotatable=0;points=[[0,0.5],[1,0.5]];portConstraint=eastwest;whiteSpace=wrap;html=1;fontStyle=2" parent="NJMLS7cSDRtt0C9bfpIb-12" vertex="1">
          <mxGeometry y="66" width="330" height="26" as="geometry" />
        </mxCell>
        <mxCell id="NJMLS7cSDRtt0C9bfpIb-15" value="+ getLineStyle(): LineStyle | null" style="text;strokeColor=none;fillColor=none;align=left;verticalAlign=top;spacingLeft=4;spacingRight=4;overflow=hidden;rotatable=0;points=[[0,0.5],[1,0.5]];portConstraint=eastwest;whiteSpace=wrap;html=1;fontStyle=2" parent="NJMLS7cSDRtt0C9bfpIb-12" vertex="1">
          <mxGeometry y="92" width="330" height="26" as="geometry" />
        </mxCell>
        <mxCell id="NJMLS7cSDRtt0C9bfpIb-16" value="+ setLineStyle(style: LineStyle)" style="text;strokeColor=none;fillColor=none;align=left;verticalAlign=top;spacingLeft=4;spacingRight=4;overflow=hidden;rotatable=0;points=[[0,0.5],[1,0.5]];portConstraint=eastwest;whiteSpace=wrap;html=1;fontStyle=2" parent="NJMLS7cSDRtt0C9bfpIb-12" vertex="1">
          <mxGeometry y="118" width="330" height="26" as="geometry" />
        </mxCell>
        <mxCell id="NJMLS7cSDRtt0C9bfpIb-17" value="+&amp;nbsp;getFillStyle(): FillStyle | null" style="text;strokeColor=none;fillColor=none;align=left;verticalAlign=top;spacingLeft=4;spacingRight=4;overflow=hidden;rotatable=0;points=[[0,0.5],[1,0.5]];portConstraint=eastwest;whiteSpace=wrap;html=1;fontStyle=2" parent="NJMLS7cSDRtt0C9bfpIb-12" vertex="1">
          <mxGeometry y="144" width="330" height="26" as="geometry" />
        </mxCell>
        <mxCell id="NJMLS7cSDRtt0C9bfpIb-18" value="+&amp;nbsp;setFillStyle(style: FillStyle)" style="text;strokeColor=none;fillColor=none;align=left;verticalAlign=top;spacingLeft=4;spacingRight=4;overflow=hidden;rotatable=0;points=[[0,0.5],[1,0.5]];portConstraint=eastwest;whiteSpace=wrap;html=1;fontStyle=2" parent="NJMLS7cSDRtt0C9bfpIb-12" vertex="1">
          <mxGeometry y="170" width="330" height="26" as="geometry" />
        </mxCell>
        <mxCell id="NJMLS7cSDRtt0C9bfpIb-19" value="+&amp;nbsp;isComposite(): boolean" style="text;strokeColor=none;fillColor=none;align=left;verticalAlign=top;spacingLeft=4;spacingRight=4;overflow=hidden;rotatable=0;points=[[0,0.5],[1,0.5]];portConstraint=eastwest;whiteSpace=wrap;html=1;fontStyle=2" parent="NJMLS7cSDRtt0C9bfpIb-12" vertex="1">
          <mxGeometry y="196" width="330" height="26" as="geometry" />
        </mxCell>
        <mxCell id="NJMLS7cSDRtt0C9bfpIb-21" value="Extends" style="endArrow=block;endSize=16;endFill=0;html=1;rounded=0;" parent="1" source="NJMLS7cSDRtt0C9bfpIb-81" target="46q81IR-mYQ_SQyIT16s-118" edge="1">
          <mxGeometry width="160" relative="1" as="geometry">
            <mxPoint x="1624.6153846153845" y="-540" as="sourcePoint" />
            <mxPoint x="1230" y="-560" as="targetPoint" />
          </mxGeometry>
        </mxCell>
        <mxCell id="NJMLS7cSDRtt0C9bfpIb-80" value="" style="endArrow=block;dashed=1;endFill=0;endSize=12;html=1;rounded=0;" parent="1" source="46q81IR-mYQ_SQyIT16s-118" target="NJMLS7cSDRtt0C9bfpIb-12" edge="1">
          <mxGeometry width="160" relative="1" as="geometry">
            <mxPoint x="940" y="-400" as="sourcePoint" />
            <mxPoint x="868" y="-574" as="targetPoint" />
          </mxGeometry>
        </mxCell>
        <mxCell id="NJMLS7cSDRtt0C9bfpIb-81" value="Rectangle" style="swimlane;fontStyle=1;align=center;verticalAlign=top;childLayout=stackLayout;horizontal=1;startSize=26;horizontalStack=0;resizeParent=1;resizeParentMax=0;resizeLast=0;collapsible=1;marginBottom=0;whiteSpace=wrap;html=1;" parent="1" vertex="1">
          <mxGeometry x="1200" y="110" width="220" height="60" as="geometry" />
        </mxCell>
        <mxCell id="NJMLS7cSDRtt0C9bfpIb-82" value="+ draw(canvas: ICanvas)" style="text;strokeColor=none;fillColor=none;align=left;verticalAlign=top;spacingLeft=4;spacingRight=4;overflow=hidden;rotatable=0;points=[[0,0.5],[1,0.5]];portConstraint=eastwest;whiteSpace=wrap;html=1;" parent="NJMLS7cSDRtt0C9bfpIb-81" vertex="1">
          <mxGeometry y="26" width="220" height="26" as="geometry" />
        </mxCell>
        <mxCell id="NJMLS7cSDRtt0C9bfpIb-83" value="" style="line;strokeWidth=1;fillColor=none;align=left;verticalAlign=middle;spacingTop=-1;spacingLeft=3;spacingRight=3;rotatable=0;labelPosition=right;points=[];portConstraint=eastwest;strokeColor=inherit;" parent="NJMLS7cSDRtt0C9bfpIb-81" vertex="1">
          <mxGeometry y="52" width="220" height="8" as="geometry" />
        </mxCell>
        <mxCell id="NJMLS7cSDRtt0C9bfpIb-87" value="ShapesGroup" style="swimlane;fontStyle=1;align=center;verticalAlign=top;childLayout=stackLayout;horizontal=1;startSize=26;horizontalStack=0;resizeParent=1;resizeParentMax=0;resizeLast=0;collapsible=1;marginBottom=0;whiteSpace=wrap;html=1;" parent="1" vertex="1">
          <mxGeometry x="630" y="-100" width="220" height="86" as="geometry" />
        </mxCell>
        <mxCell id="NJMLS7cSDRtt0C9bfpIb-88" value="+ реализует все методы" style="text;strokeColor=none;fillColor=none;align=left;verticalAlign=top;spacingLeft=4;spacingRight=4;overflow=hidden;rotatable=0;points=[[0,0.5],[1,0.5]];portConstraint=eastwest;whiteSpace=wrap;html=1;" parent="NJMLS7cSDRtt0C9bfpIb-87" vertex="1">
          <mxGeometry y="26" width="220" height="26" as="geometry" />
        </mxCell>
        <mxCell id="NJMLS7cSDRtt0C9bfpIb-89" value="" style="line;strokeWidth=1;fillColor=none;align=left;verticalAlign=middle;spacingTop=-1;spacingLeft=3;spacingRight=3;rotatable=0;labelPosition=right;points=[];portConstraint=eastwest;strokeColor=inherit;" parent="NJMLS7cSDRtt0C9bfpIb-87" vertex="1">
          <mxGeometry y="52" width="220" height="8" as="geometry" />
        </mxCell>
        <mxCell id="NJMLS7cSDRtt0C9bfpIb-92" value="- shapes: IShape[]" style="text;strokeColor=none;fillColor=none;align=left;verticalAlign=top;spacingLeft=4;spacingRight=4;overflow=hidden;rotatable=0;points=[[0,0.5],[1,0.5]];portConstraint=eastwest;whiteSpace=wrap;html=1;" parent="NJMLS7cSDRtt0C9bfpIb-87" vertex="1">
          <mxGeometry y="60" width="220" height="26" as="geometry" />
        </mxCell>
        <mxCell id="NJMLS7cSDRtt0C9bfpIb-93" value="" style="endArrow=block;dashed=1;endFill=0;endSize=12;html=1;rounded=0;" parent="1" source="NJMLS7cSDRtt0C9bfpIb-87" target="NJMLS7cSDRtt0C9bfpIb-12" edge="1">
          <mxGeometry width="160" relative="1" as="geometry">
            <mxPoint x="1201" y="-100" as="sourcePoint" />
            <mxPoint x="1112" y="-178" as="targetPoint" />
          </mxGeometry>
        </mxCell>
        <mxCell id="NJMLS7cSDRtt0C9bfpIb-94" value="MockCanvas" style="swimlane;fontStyle=1;align=center;verticalAlign=top;childLayout=stackLayout;horizontal=1;startSize=26;horizontalStack=0;resizeParent=1;resizeParentMax=0;resizeLast=0;collapsible=1;marginBottom=0;whiteSpace=wrap;html=1;" parent="1" vertex="1">
          <mxGeometry x="330" y="-280" width="220" height="60" as="geometry" />
        </mxCell>
        <mxCell id="NJMLS7cSDRtt0C9bfpIb-95" value="+ реализует все методы" style="text;strokeColor=none;fillColor=none;align=left;verticalAlign=top;spacingLeft=4;spacingRight=4;overflow=hidden;rotatable=0;points=[[0,0.5],[1,0.5]];portConstraint=eastwest;whiteSpace=wrap;html=1;" parent="NJMLS7cSDRtt0C9bfpIb-94" vertex="1">
          <mxGeometry y="26" width="220" height="26" as="geometry" />
        </mxCell>
        <mxCell id="NJMLS7cSDRtt0C9bfpIb-96" value="" style="line;strokeWidth=1;fillColor=none;align=left;verticalAlign=middle;spacingTop=-1;spacingLeft=3;spacingRight=3;rotatable=0;labelPosition=right;points=[];portConstraint=eastwest;strokeColor=inherit;" parent="NJMLS7cSDRtt0C9bfpIb-94" vertex="1">
          <mxGeometry y="52" width="220" height="8" as="geometry" />
        </mxCell>
        <mxCell id="NJMLS7cSDRtt0C9bfpIb-99" value="" style="endArrow=block;dashed=1;endFill=0;endSize=12;html=1;rounded=0;" parent="1" source="NJMLS7cSDRtt0C9bfpIb-94" target="46q81IR-mYQ_SQyIT16s-81" edge="1">
          <mxGeometry width="160" relative="1" as="geometry">
            <mxPoint x="792" y="-90" as="sourcePoint" />
            <mxPoint x="877" y="-178" as="targetPoint" />
          </mxGeometry>
        </mxCell>
        <mxCell id="NJMLS7cSDRtt0C9bfpIb-104" value="" style="endArrow=block;dashed=1;endFill=0;endSize=12;html=1;rounded=0;" parent="1" source="NJMLS7cSDRtt0C9bfpIb-105" target="NJMLS7cSDRtt0C9bfpIb-3" edge="1">
          <mxGeometry width="160" relative="1" as="geometry">
            <mxPoint x="1200" y="-665.0967741935485" as="sourcePoint" />
            <mxPoint x="868" y="-574" as="targetPoint" />
          </mxGeometry>
        </mxCell>
        <mxCell id="NJMLS7cSDRtt0C9bfpIb-105" value="Slide" style="swimlane;fontStyle=1;align=center;verticalAlign=top;childLayout=stackLayout;horizontal=1;startSize=26;horizontalStack=0;resizeParent=1;resizeParentMax=0;resizeLast=0;collapsible=1;marginBottom=0;whiteSpace=wrap;html=1;" parent="1" vertex="1">
          <mxGeometry x="1220" y="-660" width="260" height="138" as="geometry" />
        </mxCell>
        <mxCell id="NJMLS7cSDRtt0C9bfpIb-106" value="+ draw(canvas: ICanvas)" style="text;strokeColor=none;fillColor=none;align=left;verticalAlign=top;spacingLeft=4;spacingRight=4;overflow=hidden;rotatable=0;points=[[0,0.5],[1,0.5]];portConstraint=eastwest;whiteSpace=wrap;html=1;" parent="NJMLS7cSDRtt0C9bfpIb-105" vertex="1">
          <mxGeometry y="26" width="260" height="26" as="geometry" />
        </mxCell>
        <mxCell id="NJMLS7cSDRtt0C9bfpIb-111" value="+ addElement(element: IShape, id: string)" style="text;strokeColor=none;fillColor=none;align=left;verticalAlign=top;spacingLeft=4;spacingRight=4;overflow=hidden;rotatable=0;points=[[0,0.5],[1,0.5]];portConstraint=eastwest;whiteSpace=wrap;html=1;" parent="NJMLS7cSDRtt0C9bfpIb-105" vertex="1">
          <mxGeometry y="52" width="260" height="26" as="geometry" />
        </mxCell>
        <mxCell id="NJMLS7cSDRtt0C9bfpIb-112" value="+ removeElement(id: string): Element&amp;nbsp; | null" style="text;strokeColor=none;fillColor=none;align=left;verticalAlign=top;spacingLeft=4;spacingRight=4;overflow=hidden;rotatable=0;points=[[0,0.5],[1,0.5]];portConstraint=eastwest;whiteSpace=wrap;html=1;" parent="NJMLS7cSDRtt0C9bfpIb-105" vertex="1">
          <mxGeometry y="78" width="260" height="26" as="geometry" />
        </mxCell>
        <mxCell id="NJMLS7cSDRtt0C9bfpIb-107" value="" style="line;strokeWidth=1;fillColor=none;align=left;verticalAlign=middle;spacingTop=-1;spacingLeft=3;spacingRight=3;rotatable=0;labelPosition=right;points=[];portConstraint=eastwest;strokeColor=inherit;" parent="NJMLS7cSDRtt0C9bfpIb-105" vertex="1">
          <mxGeometry y="104" width="260" height="8" as="geometry" />
        </mxCell>
        <mxCell id="NJMLS7cSDRtt0C9bfpIb-108" value="- elements: Map&amp;lt;string, IShape&amp;gt;" style="text;strokeColor=none;fillColor=none;align=left;verticalAlign=top;spacingLeft=4;spacingRight=4;overflow=hidden;rotatable=0;points=[[0,0.5],[1,0.5]];portConstraint=eastwest;whiteSpace=wrap;html=1;" parent="NJMLS7cSDRtt0C9bfpIb-105" vertex="1">
          <mxGeometry y="112" width="260" height="26" as="geometry" />
        </mxCell>
        <mxCell id="NJMLS7cSDRtt0C9bfpIb-113" value="" style="endArrow=diamondThin;endFill=0;endSize=24;html=1;rounded=0;" parent="1" source="NJMLS7cSDRtt0C9bfpIb-12" target="NJMLS7cSDRtt0C9bfpIb-105" edge="1">
          <mxGeometry width="160" relative="1" as="geometry">
            <mxPoint x="1080" y="-360" as="sourcePoint" />
            <mxPoint x="1350" y="-440" as="targetPoint" />
          </mxGeometry>
        </mxCell>
        <mxCell id="NJMLS7cSDRtt0C9bfpIb-114" value="" style="endArrow=diamondThin;endFill=0;endSize=24;html=1;rounded=0;entryX=1;entryY=0;entryDx=0;entryDy=0;" parent="1" source="NJMLS7cSDRtt0C9bfpIb-12" target="NJMLS7cSDRtt0C9bfpIb-87" edge="1">
          <mxGeometry width="160" relative="1" as="geometry">
            <mxPoint x="1271" y="-512" as="sourcePoint" />
            <mxPoint x="960" y="-100" as="targetPoint" />
          </mxGeometry>
        </mxCell>
        <mxCell id="HPYDakPVUXtzU__mUKwG-3" value="Ellipse" style="swimlane;fontStyle=1;align=center;verticalAlign=top;childLayout=stackLayout;horizontal=1;startSize=26;horizontalStack=0;resizeParent=1;resizeParentMax=0;resizeLast=0;collapsible=1;marginBottom=0;whiteSpace=wrap;html=1;" parent="1" vertex="1">
          <mxGeometry x="930" y="110" width="220" height="60" as="geometry" />
        </mxCell>
        <mxCell id="HPYDakPVUXtzU__mUKwG-4" value="+ draw(canvas: ICanvas)" style="text;strokeColor=none;fillColor=none;align=left;verticalAlign=top;spacingLeft=4;spacingRight=4;overflow=hidden;rotatable=0;points=[[0,0.5],[1,0.5]];portConstraint=eastwest;whiteSpace=wrap;html=1;" parent="HPYDakPVUXtzU__mUKwG-3" vertex="1">
          <mxGeometry y="26" width="220" height="26" as="geometry" />
        </mxCell>
        <mxCell id="HPYDakPVUXtzU__mUKwG-5" value="" style="line;strokeWidth=1;fillColor=none;align=left;verticalAlign=middle;spacingTop=-1;spacingLeft=3;spacingRight=3;rotatable=0;labelPosition=right;points=[];portConstraint=eastwest;strokeColor=inherit;" parent="HPYDakPVUXtzU__mUKwG-3" vertex="1">
          <mxGeometry y="52" width="220" height="8" as="geometry" />
        </mxCell>
        <mxCell id="HPYDakPVUXtzU__mUKwG-6" value="Extends" style="endArrow=block;endSize=16;endFill=0;html=1;rounded=0;exitX=0.5;exitY=0;exitDx=0;exitDy=0;" parent="1" source="HPYDakPVUXtzU__mUKwG-3" target="46q81IR-mYQ_SQyIT16s-118" edge="1">
          <mxGeometry width="160" relative="1" as="geometry">
            <mxPoint x="1313" y="120" as="sourcePoint" />
            <mxPoint x="1295" y="38" as="targetPoint" />
          </mxGeometry>
        </mxCell>
        <mxCell id="HPYDakPVUXtzU__mUKwG-7" value="Extends" style="endArrow=block;endSize=16;endFill=0;html=1;rounded=0;" parent="1" source="NJMLS7cSDRtt0C9bfpIb-12" target="NJMLS7cSDRtt0C9bfpIb-3" edge="1">
          <mxGeometry width="160" relative="1" as="geometry">
            <mxPoint x="850" y="-493.36836965460526" as="sourcePoint" />
            <mxPoint x="1175" y="38" as="targetPoint" />
          </mxGeometry>
        </mxCell>
        <mxCell id="HPYDakPVUXtzU__mUKwG-10" value="компоновщик для стилей&lt;br&gt;не допускат пустых групп&lt;br&gt;сделать так чтобы можно было работать с составными группами удобно" style="text;strokeColor=none;fillColor=none;align=left;verticalAlign=top;spacingLeft=4;spacingRight=4;overflow=hidden;rotatable=0;points=[[0,0.5],[1,0.5]];portConstraint=eastwest;whiteSpace=wrap;html=1;fontStyle=2" parent="1" vertex="1">
          <mxGeometry x="1260" y="-280" width="330" height="90" as="geometry" />
        </mxCell>
      </root>
    </mxGraphModel>
  </diagram>
</mxfile>
